# xmcd
#
# Track frame offsets:
#  150
#  14832
#  30010
#  43852
#  58875
#  72367
#  86312
#  100812
#  115412
#  128425
#  140792
#  150777
#  164850
#  177372
#
# Disc length: 2529 seconds
#
# Revision: 0
# Processed by: cddbd v1.5.2PL0 Copyright (c) Steve Scherf et al.
# Submitted via: Collectorz.com_Music_Collector 6.11
#
DISCID=bb09df0e
DTITLE=gene Cossmann Orchestra - Hit Kit Of Popular Songs - Sentimental Journey
DYEAR=1984
DGENRE=Big Band - Orchestral
TTITLE0=Bumble Boogie
TTITLE1=Sweet Dreams Sweetheart
TTITLE2=Dream
TTITLE3=Sentimental Journey
TTITLE4=Tenderly
TTITLE5=The Wedding Samba
TTITLE6=Begin The Beguine
TTITLE7=My Happiness
TTITLE8=Easter Parade
TTITLE9=Because
TTITLE10=Buttons And Bows
TTITLE11=In Love
TTITLE12=Again
TTITLE13=Dear Hearts and Gentle People
EXTD=
EXTT0=
EXTT1=
EXTT2=
EXTT3=
EXTT4=
EXTT5=
EXTT6=
EXTT7=
EXTT8=
EXTT9=
EXTT10=
EXTT11=
EXTT12=
EXTT13=
PLAYORDER=
